<?xml version="1.0" standalone="no"?>
<!DOCTYPE svg PUBLIC "-//W3C//DTD SVG 20010904//EN"
 "http://www.w3.org/TR/2001/REC-SVG-20010904/DTD/svg10.dtd">
<svg version="1.0" xmlns="http://www.w3.org/2000/svg"
 width="300.000000pt" height="300.000000pt" viewBox="0 0 300.000000 300.000000"
 preserveAspectRatio="xMidYMid meet">
<metadata>
Created by potrace 1.10, written by Peter Selinger 2001-2011
</metadata>
<g transform="translate(0.000000,300.000000) scale(0.100000,-0.100000)"
fill="#000000" stroke="none">
<path d="M2165 2885 c-45 -19 -118 -93 -164 -165 -48 -74 -144 -267 -139 -281
2 -5 29 41 61 103 100 195 199 316 275 335 13 3 28 1 33 -4 20 -20 40 -122 54
-278 22 -237 21 -252 -20 -330 -22 -43 -29 -65 -20 -61 8 3 21 9 29 12 25 10
31 -73 10 -147 -9 -35 -20 -67 -23 -71 -4 -5 -25 15 -46 44 -22 28 -47 59 -56
67 -9 9 -24 32 -34 51 -10 19 -21 37 -24 40 -17 14 -64 85 -81 122 -11 24 -20
64 -20 90 0 103 113 362 178 405 18 12 38 24 45 26 7 2 9 8 5 12 -14 15 -70
-19 -114 -69 -24 -28 -40 -52 -34 -54 6 -2 2 -17 -9 -36 -11 -17 -36 -69 -56
-116 -31 -73 -36 -95 -36 -166 -1 -45 2 -87 6 -93 15 -25 -15 -9 -41 21 -15
18 -40 41 -57 51 -27 17 -29 17 -23 2 5 -14 2 -16 -11 -10 -10 4 -31 10 -48
12 -20 3 -1 -10 53 -37 96 -48 187 -132 226 -208 33 -65 58 -155 54 -194 l-3
-32 -31 50 c-70 113 -343 425 -344 394 0 -14 55 -82 149 -185 20 -22 59 -69
86 -105 28 -35 55 -71 62 -80 7 -8 26 -35 44 -59 l31 -43 12 24 c7 13 16 46
19 73 6 38 3 52 -10 67 -9 10 -14 20 -11 23 12 12 36 -9 67 -60 50 -83 80
-166 91 -252 20 -153 76 -262 164 -318 25 -16 23 -11 -15 28 -69 71 -104 145
-127 269 -12 58 -31 130 -43 158 -18 42 -20 56 -11 69 48 65 66 163 42 227 -8
21 -7 44 6 93 17 67 17 66 -2 351 -7 99 -14 137 -37 192 -23 55 -57 68 -112
43z"/>
<path d="M646 2848 c-35 -57 -46 -133 -49 -350 -1 -125 2 -219 8 -228 20 -31
21 -55 6 -124 -13 -58 -3 -106 34 -160 30 -45 30 -48 4 -122 -11 -32 -24 -97
-30 -144 -12 -114 -42 -190 -97 -251 -52 -58 -51 -75 2 -29 55 49 94 139 107
245 16 137 26 180 63 260 33 71 81 134 93 121 3 -3 -6 -21 -21 -41 -15 -19
-22 -34 -15 -33 8 2 15 -12 19 -35 4 -21 12 -43 18 -49 6 -6 8 -18 4 -27 -10
-27 24 5 50 48 12 20 36 54 53 77 16 22 39 53 50 68 22 32 156 196 192 236 19
20 32 60 20 60 -8 0 -161 -184 -221 -265 -37 -50 -70 -95 -75 -101 -4 -5 -19
-29 -32 -52 -13 -23 -28 -42 -33 -42 -12 0 3 103 24 166 38 109 145 224 258
277 40 18 60 32 50 34 -9 3 -30 -3 -47 -12 -28 -14 -30 -14 -24 1 5 15 3 15
-20 -1 -15 -9 -27 -13 -27 -9 0 5 -8 -4 -18 -21 -11 -16 -26 -36 -35 -43 -14
-12 -16 -4 -16 79 l0 92 -58 116 c-31 64 -56 120 -55 124 1 5 -11 25 -27 46
-29 37 -105 80 -118 68 -3 -4 -4 -8 -2 -9 2 -2 22 -13 44 -24 34 -18 49 -38
97 -130 99 -187 119 -287 75 -374 -27 -53 -58 -103 -69 -111 -5 -3 -18 -24
-31 -46 -40 -75 -120 -174 -128 -161 -21 34 -41 139 -35 182 l7 46 25 -16 c13
-9 24 -14 24 -12 0 3 -16 36 -36 74 l-36 69 7 181 c3 100 14 218 23 265 16 80
18 84 45 87 74 9 188 -117 312 -347 27 -50 51 -87 53 -81 4 12 -46 113 -110
222 -49 83 -146 190 -192 212 -49 23 -92 21 -110 -6z"/>
<path d="M2184 2688 c-15 -40 -40 -92 -55 -116 -15 -24 -30 -62 -34 -85 -3
-23 -11 -61 -17 -85 -6 -23 -8 -45 -5 -49 8 -8 52 89 62 137 4 19 14 51 23 70
16 35 16 35 22 -85 8 -190 -8 -284 -25 -140 -8 74 -25 97 -25 35 0 -59 34
-199 61 -251 26 -51 34 -46 15 9 -13 36 -13 42 -1 42 20 0 35 -32 35 -74 0
-46 16 -55 24 -13 8 46 -7 103 -26 99 -12 -2 -17 11 -22 58 -4 33 -4 74 -1 92
3 18 2 74 -3 125 -5 52 -5 136 -1 194 5 56 7 104 5 106 -2 2 -16 -29 -32 -69z"/>
<path d="M695 2693 c3 -21 8 -149 11 -285 3 -237 3 -248 -15 -248 -23 0 -35
-52 -25 -106 8 -44 24 -27 24 27 0 23 7 42 20 54 17 16 20 16 20 2 0 -9 -4
-27 -10 -41 -15 -41 5 -30 23 12 34 77 67 318 37 272 -5 -8 -10 -28 -10 -45 0
-31 -15 -63 -24 -54 -8 8 -12 279 -4 279 3 0 14 -21 23 -47 34 -98 71 -177 84
-181 10 -3 11 0 2 16 -6 11 -18 54 -26 94 -9 44 -26 89 -43 113 -15 22 -41 70
-56 108 -16 37 -31 67 -34 67 -2 0 -1 -17 3 -37z"/>
<path d="M2043 2698 c-23 -31 -64 -110 -61 -118 2 -5 19 22 39 60 36 69 41 82
22 58z"/>
<path d="M869 2658 c17 -26 41 -68 52 -93 11 -26 23 -44 26 -42 7 8 -66 143
-89 164 -13 11 -9 1 11 -29z"/>
<path d="M2118 2643 c-34 -35 -75 -110 -65 -119 2 -2 18 17 35 43 17 27 40 63
52 81 29 42 22 41 -22 -5z"/>
<path d="M765 2635 c28 -44 105 -148 105 -141 0 23 -47 99 -82 132 -38 36 -40
36 -23 9z"/>
<path d="M1290 2469 c-127 -23 -155 -25 -200 -16 l-35 7 35 -16 c38 -17 69
-16 185 10 91 20 303 21 415 1 81 -15 134 -13 145 5 2 4 -14 5 -38 3 -23 -3
-98 2 -165 11 -153 20 -209 19 -342 -5z"/>
<path d="M1400 2385 c-24 -25 -24 -25 -4 -175 l6 -45 -33 31 c-19 18 -45 37
-58 44 -32 16 -104 4 -127 -22 -11 -11 -36 -29 -56 -39 -21 -11 -38 -22 -38
-25 0 -3 5 -2 10 1 8 5 10 -13 7 -52 -4 -55 -6 -59 -45 -86 -53 -36 -89 -83
-95 -125 -9 -55 -47 -120 -95 -162 -25 -23 -51 -39 -58 -36 -7 3 -18 -2 -24
-10 -10 -11 -8 -14 11 -14 22 0 22 -1 -8 -20 -20 -12 -44 -42 -62 -77 -31 -62
-56 -91 -114 -136 -50 -38 -47 -52 6 -26 76 39 96 59 132 134 32 68 41 78 104
119 80 52 117 105 136 197 8 36 22 71 36 86 31 33 85 56 111 47 18 -5 20 -3
13 17 -5 13 -9 47 -9 76 -1 44 3 56 29 83 16 17 46 36 67 42 34 10 42 9 66 -8
36 -27 81 -118 89 -182 3 -29 9 -52 13 -52 4 0 12 57 19 128 11 112 11 131 -3
164 -24 57 -21 107 7 117 32 12 76 2 88 -20 7 -14 5 -37 -7 -80 -16 -58 -16
-72 2 -283 15 -185 20 -212 25 -166 4 30 12 94 18 141 18 143 66 249 112 249
37 0 89 -29 109 -62 18 -27 20 -44 16 -93 l-5 -60 35 -2 c68 -3 105 -43 130
-139 21 -84 53 -126 136 -181 63 -42 77 -56 103 -110 39 -79 56 -97 124 -130
31 -14 50 -28 44 -30 -18 -6 -83 16 -117 40 -16 12 -26 16 -22 9 12 -19 -19
-14 -47 8 -14 11 -36 37 -48 58 -25 41 -69 92 -80 92 -12 0 53 -100 93 -142
29 -31 44 -39 65 -37 15 2 39 -4 53 -13 14 -10 43 -24 64 -33 32 -14 40 -14
47 -3 18 28 6 50 -51 88 -48 32 -61 47 -90 103 -13 27 -40 62 -59 78 -25 21
-31 29 -18 29 22 0 21 6 -2 29 -18 18 -20 18 -23 3 -8 -42 -147 129 -148 183
-1 33 -53 98 -97 123 -40 22 -42 25 -48 87 l-7 63 -57 36 c-72 46 -117 48
-159 7 -16 -16 -35 -43 -42 -60 -14 -34 -30 -41 -31 -13 0 9 -2 28 -3 42 -2
13 3 47 10 75 19 71 17 89 -12 119 -36 36 -100 37 -134 1z"/>
<path d="M1663 1989 c-36 -11 -63 -43 -63 -75 0 -36 31 -148 43 -156 17 -10
20 -3 8 19 -12 22 -31 104 -31 132 0 49 70 79 104 45 15 -14 16 -14 16 5 0 16
-29 44 -42 40 -2 0 -17 -5 -35 -10z"/>
<path d="M1203 1984 c-7 -3 -13 -15 -13 -27 0 -16 3 -18 12 -9 7 7 27 12 45
12 50 0 66 -32 57 -112 -4 -34 -11 -71 -16 -80 -5 -12 -5 -18 1 -18 6 0 13 12
16 28 3 15 10 43 15 63 16 60 12 94 -14 118 -23 22 -80 35 -103 25z"/>
<path d="M1775 1926 c-49 -21 -82 -69 -90 -126 -4 -28 -4 -54 0 -58 10 -11 25
21 19 42 -4 12 -2 17 6 14 6 -2 10 -8 9 -13 -3 -11 38 -22 89 -24 46 -1 103
52 105 98 3 58 -75 96 -138 67z m93 -39 c30 -23 -4 -81 -55 -94 -28 -6 -79 13
-87 34 -21 54 90 101 142 60z"/>
<path d="M1771 1876 c-16 -19 -3 -46 23 -46 30 0 34 6 28 35 -5 28 -32 34 -51
11z"/>
<path d="M1099 1922 c-15 -2 -38 -16 -53 -31 -33 -35 -28 -69 16 -106 38 -32
72 -40 114 -27 28 8 38 7 58 -9 40 -31 43 -5 10 88 -21 58 -81 93 -145 85z
m89 -48 c47 -31 7 -102 -52 -90 -42 9 -80 47 -72 73 13 42 73 50 124 17z"/>
<path d="M1117 1873 c-25 -24 12 -69 44 -53 25 14 13 60 -15 60 -13 0 -26 -3
-29 -7z"/>
<path d="M1417 1608 c-30 -40 -50 -99 -44 -130 4 -27 10 -16 26 47 6 22 21 53
34 69 19 24 28 28 51 22 22 -5 34 -21 62 -81 36 -78 49 -94 38 -47 -32 136
-112 193 -167 120z"/>
<path d="M873 1577 c-12 -12 -35 -44 -51 -72 -17 -27 -45 -58 -62 -69 l-32
-18 18 28 18 29 -30 -27 c-32 -29 -109 -67 -137 -68 -16 0 -16 -2 -2 -24 15
-22 14 -24 -12 -41 -33 -21 -52 -45 -53 -63 0 -7 18 1 42 18 22 16 48 30 57
30 29 0 141 83 129 96 -3 2 -35 -9 -71 -26 -72 -32 -77 -34 -77 -22 0 11 109
65 138 68 41 5 71 34 114 108 41 73 45 90 11 53z"/>
<path d="M1804 1498 c24 -79 30 -118 30 -223 1 -190 -41 -275 -137 -275 -67 0
-198 70 -196 104 0 6 28 25 61 41 82 40 103 70 103 144 -1 72 -28 136 -64 150
-45 18 -134 21 -195 8 -70 -15 -91 -38 -106 -116 -11 -60 -6 -94 22 -134 20
-28 104 -77 133 -77 26 0 17 -37 -16 -65 -47 -39 -100 -63 -156 -71 -48 -6
-53 -4 -86 27 -19 19 -42 54 -52 79 -31 83 -31 252 1 380 5 17 3 22 -4 15 -21
-21 -45 -151 -44 -250 l0 -100 -24 45 c-13 25 -23 55 -24 68 0 12 -4 22 -10
22 -5 0 -19 9 -30 20 -31 31 -41 23 -17 -14 12 -18 25 -32 28 -30 4 2 12 -16
19 -41 16 -56 120 -218 154 -241 21 -13 41 -16 99 -11 39 2 98 0 129 -6 44 -8
74 -7 125 3 38 8 98 14 135 14 97 1 111 14 210 193 31 56 49 143 29 143 -6 0
-11 -11 -11 -24 0 -20 -36 -116 -43 -116 -2 0 -3 39 -3 88 -1 93 -26 219 -51
249 -13 16 -14 16 -9 1z m-239 -78 c36 -8 82 -46 71 -58 -3 -2 -65 -6 -138 -8
-73 -2 -141 -4 -152 -4 -23 -1 -28 3 -21 21 17 44 147 71 240 49z m-40 -80 c6
-1 29 -1 53 0 30 1 44 -3 48 -14 8 -22 -13 -46 -40 -45 -11 0 -15 3 -8 6 17 7
15 30 -3 37 -23 9 -43 -3 -49 -30 -9 -34 0 -44 35 -44 20 0 40 10 60 29 18 18
29 24 29 15 0 -8 -9 -23 -20 -34 -11 -11 -15 -20 -8 -20 9 0 9 -3 1 -11 -7 -7
-30 -12 -52 -12 -46 0 -46 0 -30 -29 9 -18 8 -24 -7 -35 -37 -27 -44 -17 -44
62 0 43 -4 75 -10 75 -11 0 -13 -17 -10 -97 2 -58 2 -57 -35 -43 -27 10 -27
11 -9 56 3 7 -6 9 -24 6 -29 -4 -79 14 -68 25 3 3 -1 15 -9 27 -26 36 -16 46
14 15 50 -49 120 -34 91 20 -12 24 -60 29 -60 7 0 -8 6 -16 13 -19 6 -2 9 -8
5 -12 -10 -11 -60 24 -55 38 2 7 23 13 48 15 24 2 47 6 51 10 6 6 67 8 93 2z
m-25 -290 c0 -5 21 -22 47 -37 l47 -27 -30 -13 c-31 -13 -113 -15 -153 -4 -23
6 -22 7 17 35 22 15 43 34 46 42 6 16 26 19 26 4z"/>
<path d="M1435 1390 c-4 -6 11 -10 40 -10 25 0 44 4 41 8 -7 12 -74 14 -81 2z"/>
<path d="M1933 1415 c0 -33 2 -45 4 -27 2 18 2 45 0 60 -2 15 -4 0 -4 -33z"/>
<path d="M2436 1429 c3 -5 15 -9 26 -9 20 0 20 -1 5 -18 -23 -26 -5 -86 39
-130 l34 -34 -37 -34 c-21 -19 -49 -36 -63 -40 -14 -3 -36 -10 -50 -16 -39
-16 -80 -27 -80 -21 0 3 11 14 25 25 l25 19 -20 22 c-11 11 -33 27 -48 34 -25
12 -22 13 35 10 47 -2 60 0 53 9 -8 8 -3 10 17 7 27 -4 27 -4 8 12 -39 31 -89
37 -145 16 -57 -22 -98 -16 -144 20 -32 25 -35 11 -3 -18 25 -24 168 -83 199
-83 34 0 14 -24 -38 -44 -39 -15 -73 -19 -169 -17 -167 2 -181 -15 -21 -24 69
-4 126 -11 126 -15 0 -4 -15 -27 -33 -51 -27 -34 -35 -57 -40 -104 -3 -33 -2
-66 2 -74 10 -16 16 -2 26 69 4 25 18 63 32 84 14 22 26 49 27 60 1 18 8 21
56 22 30 0 67 3 83 7 54 14 24 -44 -63 -120 -94 -82 -143 -141 -135 -160 5
-15 10 -12 25 17 10 20 54 69 97 110 88 83 113 115 113 147 0 16 5 20 20 16
23 -6 105 39 114 62 4 11 2 14 -7 9 -6 -4 -1 4 12 19 l23 26 -36 31 c-40 36
-61 92 -45 122 13 23 6 34 -26 40 -13 3 -22 1 -19 -3z"/>
<path d="M2210 1411 c0 -16 75 -68 118 -82 20 -6 51 -22 69 -35 42 -31 47 -30
28 6 -9 17 -19 30 -23 30 -5 0 -17 8 -28 18 -10 10 -44 27 -74 38 -30 12 -63
25 -72 29 -11 4 -18 3 -18 -4z"/>
<path d="M489 1393 c-2 -7 -3 -27 -8 -85 0 -10 -17 -35 -36 -57 -40 -44 -41
-48 -17 -74 9 -11 11 -17 4 -13 -23 14 7 -27 36 -49 18 -13 44 -20 77 -20 62
-1 71 -6 79 -45 3 -19 25 -50 56 -79 27 -26 50 -53 50 -60 0 -6 3 -10 8 -9 10
4 44 -32 61 -64 8 -15 18 -25 22 -22 5 3 11 -7 15 -21 5 -21 12 -25 40 -25 57
0 159 -78 148 -112 -3 -11 -1 -24 5 -31 5 -7 8 -25 7 -39 -2 -17 1 -25 7 -21
6 4 8 0 4 -10 -4 -10 -2 -17 4 -17 6 0 9 -6 6 -13 -2 -7 18 -35 46 -62 29 -29
44 -39 36 -25 -9 14 -25 41 -36 60 -37 61 -46 115 -33 188 6 36 13 69 16 73 6
11 71 -33 76 -51 3 -8 -1 -46 -8 -85 -7 -38 -12 -86 -12 -105 l0 -35 11 32 c7
17 16 35 21 40 5 5 6 0 1 -12 -25 -63 -17 -116 20 -133 16 -7 23 -17 19 -24
-4 -7 -3 -8 5 -4 6 4 14 0 18 -10 4 -10 18 -29 32 -42 33 -30 144 -84 176 -86
15 0 24 -6 22 -15 -1 -9 11 -19 30 -24 27 -8 42 -4 108 28 89 44 225 166 225
202 0 12 5 25 10 28 6 3 10 -2 10 -12 0 -15 2 -16 10 -3 13 20 13 77 -1 102
-6 11 -8 22 -5 25 3 3 12 -9 20 -28 l15 -34 1 34 c0 22 -11 52 -31 83 -32 49
-32 55 -2 98 17 24 17 24 0 11 -35 -28 -45 -63 -44 -157 2 -116 -22 -167 -109
-237 -49 -41 -213 -132 -221 -124 -1 2 5 23 14 47 19 53 12 103 -18 140 l-21
25 7 -25 c4 -14 10 -49 12 -79 l5 -54 -33 7 c-48 9 -116 44 -157 80 -53 47
-75 105 -78 207 -2 101 -18 141 -71 182 -45 34 -59 34 -77 0 -13 -24 -15 -25
-16 -7 0 34 -55 109 -155 215 -52 55 -95 106 -95 113 0 13 80 26 156 26 19 0
34 5 34 10 0 7 -45 10 -127 8 -116 -2 -133 0 -178 21 l-50 23 39 14 c107 38
196 92 196 117 0 6 -10 1 -22 -11 -42 -38 -77 -45 -134 -26 -58 20 -104 14
-149 -17 l-30 -21 28 5 c22 3 25 2 16 -10 -10 -11 -7 -12 17 -3 16 6 45 8 69
4 l40 -7 -33 -9 c-43 -11 -52 -36 -23 -60 28 -22 14 -24 -17 -2 -12 8 -22 11
-22 6 0 -5 10 -17 23 -25 l22 -16 -25 0 c-14 0 -36 6 -50 14 -14 8 -35 14 -46
15 -12 0 -42 17 -67 37 l-46 38 23 20 c33 27 56 77 56 119 0 23 6 39 18 45 15
9 15 10 -5 11 -13 0 -24 -3 -24 -7z m272 -313 c37 0 30 -15 -11 -24 -37 -7
-47 -29 -33 -67 6 -16 8 -29 3 -29 -13 0 -90 89 -90 104 0 14 57 27 88 19 8
-2 27 -3 43 -3z m40 -75 c61 -28 109 -87 109 -133 0 -21 -6 -44 -12 -52 -11
-12 -10 -12 2 -5 9 6 7 2 -3 -7 -28 -26 -47 -22 -47 9 0 19 -17 44 -60 89 -45
47 -60 69 -60 91 0 32 23 65 28 40 2 -8 21 -22 43 -32z m216 -240 c17 -27 34
-61 38 -73 6 -20 0 -17 -33 16 -21 21 -53 45 -71 53 -17 8 -30 16 -28 19 1 3
8 22 16 42 14 36 14 36 31 15 9 -12 30 -44 47 -72z m198 -320 c8 -20 8 -20
-13 -1 -22 19 -29 56 -15 70 5 4 11 -5 14 -21 4 -15 10 -37 14 -48z"/>
<path d="M2160 1370 c0 -10 56 -33 69 -29 6 2 -8 12 -29 21 -22 9 -40 13 -40
8z"/>
<path d="M1960 1312 c-14 -11 -21 -26 -18 -40 3 -19 6 -16 25 18 24 45 24 47
-7 22z"/>
<path d="M2435 1232 c-34 -21 -60 -50 -52 -58 8 -9 118 57 111 67 -8 14 -26
11 -59 -9z"/>
<path d="M1251 1170 c-17 -81 -11 -140 15 -140 11 0 11 6 3 28 -6 16 -8 54 -4
95 3 37 4 67 1 67 -2 0 -9 -23 -15 -50z"/>
<path d="M1706 1147 c6 -61 4 -76 -10 -90 -16 -16 -16 -17 2 -17 15 0 21 9 26
39 5 35 -9 141 -20 141 -2 0 -1 -33 2 -73z"/>
<path d="M460 1205 c0 -5 115 -65 124 -65 15 0 -10 32 -39 50 -29 18 -85 28
-85 15z"/>
<path d="M2010 1191 c-14 -5 25 -8 90 -8 68 0 103 3 85 7 -39 10 -143 10 -175
1z"/>
<path d="M795 1170 c-19 -5 12 -8 85 -8 73 0 108 3 95 8 -24 10 -139 10 -180
0z"/>
<path d="M1620 1133 c0 -34 -11 -53 -29 -53 -14 -1 -13 -3 3 -15 11 -8 23 -15
27 -15 14 0 21 68 10 87 -10 17 -10 16 -11 -4z"/>
<path d="M1341 1103 c-1 -48 9 -59 41 -42 21 11 21 13 4 19 -10 3 -24 19 -31
36 l-13 29 -1 -42z"/>
<path d="M1911 1107 c-1 -25 -39 -97 -65 -125 -30 -33 -63 -49 -121 -57 -28
-4 -70 -16 -95 -28 -61 -28 -223 -30 -291 -3 -26 10 -57 16 -70 13 -22 -4 -22
-4 4 -6 15 0 40 -9 54 -18 22 -15 50 -18 153 -18 112 0 129 2 163 23 21 12 48
22 61 22 53 0 124 31 159 69 37 41 61 99 54 128 -4 17 -5 17 -6 0z"/>
<path d="M1056 1060 c13 -70 77 -135 144 -145 33 -5 33 -5 6 4 -66 22 -112 69
-143 146 l-13 30 6 -35z"/>
<path d="M2022 872 c-32 -45 -58 -109 -49 -119 3 -3 20 18 37 46 34 55 46 60
80 33 l22 -18 -51 -31 c-54 -34 -90 -82 -92 -123 0 -16 -6 -8 -15 25 -16 60
-17 68 -4 60 13 -8 13 11 0 36 -12 22 -29 24 -54 6 -17 -13 -16 -17 18 -69 49
-73 55 -113 26 -175 -13 -26 -32 -61 -43 -78 -20 -30 -20 -30 16 4 20 19 39
43 43 53 3 10 10 15 16 12 6 -4 8 -2 4 4 -3 6 -2 13 3 17 6 3 8 12 4 20 -3 8
-1 15 4 15 5 0 8 24 6 53 -4 46 -1 55 23 81 39 41 113 86 132 79 10 -3 4 6
-13 21 -16 14 -38 28 -47 31 -9 3 -21 18 -26 33 l-9 27 -31 -43z"/>
<path d="M1631 696 c-30 -32 -40 -82 -41 -201 0 -77 -5 -110 -20 -142 -22 -51
-13 -57 15 -10 16 26 21 57 25 172 4 126 7 143 28 173 28 38 24 42 -7 8z"/>
<path d="M1670 677 c0 -12 7 -50 16 -82 9 -33 17 -90 18 -126 1 -74 16 -71 16
3 0 44 -37 228 -46 228 -2 0 -4 -10 -4 -23z"/>
<path d="M1305 654 c13 -19 27 -56 30 -82 12 -87 34 -146 70 -187 l36 -40 -27
50 c-15 28 -31 55 -35 60 -4 6 -15 48 -24 94 -17 86 -35 125 -60 135 -8 3 -4
-10 10 -30z"/>
</g>
</svg>
